Coordinates
version=1
nRows=17
nColumns=36
inDegrees=yes

Units are S.I. units (second, meters, Newtons, ...)
If the header above contains a line with 'inDegrees', this indicates whether rotational values are in degrees (yes) or radians (no).

endheader
time	pelvis_tilt	pelvis_list	pelvis_rotation	pelvis_tx	pelvis_ty	pelvis_tz	hip_flexion_r	hip_adduction_r	hip_rotation_r	knee_angle_r	knee_angle_r_beta	ankle_angle_r	subtalar_angle_r	mtp_angle_r	hip_flexion_l	hip_adduction_l	hip_rotation_l	knee_angle_l	knee_angle_l_beta	ankle_angle_l	subtalar_angle_l	mtp_angle_l	lumbar_extension	lumbar_bending	lumbar_rotation	arm_flex_r	arm_add_r	arm_rot_r	elbow_flex_r	pro_sup_r	arm_flex_l	arm_add_l	arm_rot_l	elbow_flex_l	pro_sup_l
     13.30000000	     22.52207903	     -0.19290071	      2.15416498	     -0.64422166	      0.59024068	     -0.61036555	     67.59117375	     -8.67191243	      1.51957996	     92.33436321	      1.61153865	      9.97713618	     -0.30259635	     -7.49999987	     68.78105001	     -5.75677676	      0.99652950	     90.92081189	      1.58686753	      4.25575935	     -8.52598499	     -7.49999987	    -34.71892459	      1.55092383	      1.83217385	     -1.94437224	     -5.34427967	     -9.08151719	    116.04867993	    108.70593703	     -0.99067588	     -2.14494788	     -3.06749425	    116.86709333	    108.11281360
     13.31000000	     22.79271421	     -0.23343236	      2.19062353	     -0.64499353	      0.59022849	     -0.61024783	     67.31190108	     -8.61419262	      1.49176537	     92.31029231	      1.61111853	      9.96836557	     -0.39078291	     -7.49999987	     68.54320384	     -5.71144797	      1.10192981	     90.89172135	      1.58635980	      4.17507102	     -8.54574337	     -7.49999987	    -34.43145071	      1.56396745	      1.91207108	     -2.13229351	     -5.27383229	     -9.01358341	    115.82010451	    108.27237971	     -1.09539857	     -2.37820768	     -2.74730010	    116.79239448	    107.65326384
     13.32000000	     23.06840683	     -0.24133135	      2.24189822	     -0.64568003	      0.59021305	     -0.61019797	     67.04484720	     -8.59099712	      1.49346421	     92.31117657	      1.61113397	      9.92820825	     -0.44610062	     -7.49999987	     68.30052494	     -5.61742866	      1.19297420	     90.88690212	      1.58627569	      4.03849048	     -8.69438348	     -7.49999987	    -34.13917020	      1.54365819	      1.92509830	     -2.28391408	     -5.24189943	     -8.96159246	    115.51130170	    108.78939913	     -1.14422785	     -2.63942849	     -2.48887398	    116.58720148	    108.05453437
     13.33000000	     23.34814368	     -0.26555319	      2.27654437	     -0.64636993	      0.59028395	     -0.61016881	     66.74521117	     -8.53478133	      1.49814683	     92.27415617	      1.61048784	      9.83234890	     -0.55730599	     -7.49999987	     68.02572821	     -5.53937865	      1.30152213	     90.85333600	      1.58568985	      3.99845637	     -8.72841376	     -7.49999987	    -33.87766527	      1.56487438	      1.94791881	     -2.40129171	     -5.18926264	     -8.91219130	    115.28496441	    108.76719430	     -1.19849531	     -2.88944237	     -2.20572385	    116.40610224	    107.90030351
     13.34000000	     23.62809221	     -0.27854779	      2.26755006	     -0.64706552	      0.59036277	     -0.61014376	     66.43980010	     -8.46178069	      1.52030484	     92.21868737	      1.60951973	      9.69577280	     -0.68905186	     -7.49999987	     67.75799170	     -5.49790855	      1.37162491	     90.83169323	      1.58531211	      3.88529064	     -8.87856810	     -7.49999987	    -33.67317092	      1.55802523	      2.01152027	     -2.45016211	     -5.20992964	     -8.86296770	    115.05057795	    108.79247628	     -1.19900183	     -3.09945385	     -2.00547308	    116.25997036	    107.79269487
     13.35000000	     23.91923333	     -0.27865366	      2.24067187	     -0.64773020	      0.59048255	     -0.61016564	     66.13925371	     -8.39101417	      1.56041085	     92.16998809	      1.60866976	      9.53235568	     -0.82815144	     -7.49999987	     67.46252785	     -5.47605917	      1.41163756	     90.81188203	      1.58496634	      3.90223675	     -8.83929527	     -7.49999987	    -33.48912814	      1.53943225	      2.08863481	     -2.45073063	     -5.26596897	     -8.88481263	    114.81278316	    109.04971731	     -1.16568277	     -3.30283330	     -1.81223282	    116.05502031	    107.80713391
     13.36000000	     24.23269053	     -0.27374499	      2.27102674	     -0.64835128	      0.59063363	     -0.61019007	     65.83715001	     -8.37394922	      1.57797511	     92.19113678	      1.60903888	      9.55464755	     -0.80251179	     -7.49999987	     67.14355604	     -5.39324408	      1.46493144	     90.78867722	      1.58456134	      3.76724115	     -9.08556522	     -7.49999987	    -33.35311042	      1.54977018	      2.07082730	     -2.43400374	     -5.22123665	     -8.73332960	    114.61577021	    108.62772667	     -1.12316995	     -3.52921868	     -1.64661209	    115.97569214	    107.33207046
     13.37000000	     24.55169740	     -0.31386913	      2.32448088	     -0.64898675	      0.59072971	     -0.61030321	     65.52384747	     -8.34816814	      1.56327837	     92.20889326	      1.60934879	      9.60286878	     -0.81260869	     -7.49999987	     66.84708867	     -5.26719080	      1.61497018	     90.79069541	      1.58459657	      3.66882361	     -9.28812954	     -7.49999987	    -33.24126910	      1.60658881	      2.05701258	     -2.37442339	     -5.31570910	     -8.62286697	    114.38477535	    109.09360667	     -1.06493559	     -3.71540441	     -1.52177049	    115.84404740	    107.66288121
     13.38000000	     24.89156806	     -0.35846872	      2.35613308	     -0.64963462	      0.59085857	     -0.61032460	     65.16772255	     -8.31072200	      1.51540947	     92.19516844	      1.60910924	      9.52160120	     -0.96248313	     -7.49999987	     66.51452422	     -5.19702903	      1.76315108	     90.78967593	      1.58457877	      3.81219389	     -9.15423342	     -7.49999987	    -33.18562718	      1.66026939	      2.07855366	     -2.27320956	     -5.47291820	     -8.45858089	    114.21841697	    109.29734209	     -0.96135882	     -3.89984756	     -1.37841812	    115.72690396	    107.81399227
     13.39000000	     25.19333159	     -0.35973014	      2.39196660	     -0.65020034	      0.59091262	     -0.61036618	     64.85799179	     -8.31053941	      1.52307061	     92.18341383	      1.60890409	      9.40171696	     -1.03743920	     -7.49999987	     66.23684182	     -5.10520549	      1.84805325	     90.81737041	      1.58506213	      3.78087306	     -9.21918207	     -7.49999987	    -33.09268813	      1.67616459	      2.05370635	     -2.17558069	     -5.60942416	     -8.24119174	    114.04609104	    109.22871536	     -0.87045333	     -4.01619979	     -1.29790646	    115.66580987	    107.71859820
     13.40000000	     25.61951103	     -0.35033482	      2.44116929	     -0.65089282	      0.59125014	     -0.61046934	     64.39316449	     -8.35239796	      1.48863245	     92.17286311	      1.60871994	      9.36620221	     -1.06820304	     -7.49999987	     65.77077909	     -4.98088011	      1.90436196	     90.76785279	      1.58419789	      3.63554911	     -9.74968468	     -7.49999987	    -33.20493928	      1.66444210	      1.97359238	     -2.01287915	     -5.86498773	     -7.88039800	    114.02359940	    108.33508447	     -0.75969192	     -4.21243506	     -1.07948345	    115.79293759	    106.90255788
     13.41000000	     25.73593144	     -0.36036961	      2.47103061	     -0.65128477	      0.59102975	     -0.61052032	     64.31448608	     -8.31326360	      1.55180867	     92.19189369	      1.60905209	      9.34941620	     -1.02252272	     -7.49999987	     65.71352112	     -4.88779614	      1.96667360	     90.79957665	      1.58475157	      3.41292683	     -9.96109526	     -7.49999987	    -32.91740072	      1.70479807	      2.00260703	     -1.95157966	     -5.87768799	     -7.89680017	    113.77294216	    109.04942722	     -0.69072287	     -4.32230071	     -1.12716278	    115.54689938	    107.55258635
     13.42000000	     25.98319377	     -0.39019460	      2.44921681	     -0.65182938	      0.59107207	     -0.61045981	     64.05225503	     -8.21974713	      1.55948651	     92.16139568	      1.60851980	      9.29894030	     -1.12725826	     -7.49999987	     65.47178644	     -4.87909355	      2.03725875	     90.79043468	      1.58459201	      3.41167363	    -10.06090603	     -7.49999987	    -32.82555975	      1.72308745	      2.04834786	     -1.82368530	     -6.02240261	     -7.74183919	    113.64765622	    109.13536100	     -0.58343415	     -4.47886440	     -1.03542484	    115.46789877	    107.71362878
     13.43000000	     26.21618307	     -0.41519295	      2.41370656	     -0.65236249	      0.59109080	     -0.61029512	     63.81166208	     -8.10796302	      1.56776913	     92.12478526	      1.60788083	      9.22292121	     -1.25859762	     -7.49999987	     65.25342874	     -4.91022454	      2.10735368	     90.79697254	      1.58470612	      3.48986862	     -9.96315993	     -7.49999987	    -32.75337497	      1.71937636	      2.07013537	     -1.65898334	     -6.14482826	     -7.54794246	    113.51842561	    109.34242098	     -0.47590959	     -4.60807928	     -1.02045103	    115.40638207	    107.89052141
     13.44000000	     26.43722002	     -0.40679943	      2.39676417	     -0.65283706	      0.59113423	     -0.61014519	     63.60667969	     -8.04943243	      1.58239750	     92.12674557	      1.60791504	      9.15967389	     -1.33295673	     -7.49999987	     65.03854375	     -4.90793389	      2.13844377	     90.79782508	      1.58472100	      3.43997409	    -10.00520339	     -7.49999987	    -32.68441512	      1.68086979	      2.04806433	     -1.54088655	     -6.20916290	     -7.36942891	    113.42808728	    109.27978207	     -0.38619283	     -4.68424454	     -1.06563407	    115.41955411	    107.85399364
     13.45000000	     26.66310239	     -0.41486027	      2.36761678	     -0.65324043	      0.59124040	     -0.60997898	     63.37624336	     -7.97796777	      1.57811553	     92.11387768	      1.60769045	      9.06886416	     -1.40777226	     -7.49999987	     64.82423920	     -4.96517814	      2.16513034	     90.84711656	      1.58558130	      3.77710200	     -9.44054692	     -7.49999987	    -32.63135290	      1.65851954	      2.09937481	     -1.51463969	     -6.16048793	     -7.32845190	    113.42180482	    109.21513797	     -0.26174460	     -4.69556959	     -1.10773047	    115.39835333	    107.90111029
     13.46000000	     26.86853149	     -0.37844263	      2.36716872	     -0.65365339	      0.59135560	     -0.60999863	     63.17405275	     -7.98184480	      1.60638251	     92.11968474	      1.60779180	      9.11799675	     -1.38463270	     -7.49999987	     64.60468229	     -4.93855090	      2.11122079	     90.81169798	      1.58496313	      3.44598301	     -9.84078556	     -7.49999987	    -32.57925272	      1.61283045	      2.05669150	     -1.37823857	     -6.17049348	     -7.27243760	    113.33380176	    109.14080565	     -0.22970103	     -4.64003170	     -1.15280764	    115.44191598	    107.78342538
